# xmcd
#
# Track frame offsets: 
#        150
#        17214
#        32183
#        48038
#        62928
#        78090
#        93711
#        108993
#        123432
#        139516
#        153886
#        168528
#        187990
#        202236
#        218910
#        231980
#        247669
#        262034
#        280273
#
# Disc length: 3895 seconds
#
# Revision: 2
# Processed by: cddbd v1.5.2PL0 Copyright (c) Steve Scherf et al.
# Submitted via: ExactAudioCopy v1.0b3
#
DISCID=0b0f3513
DTITLE=Various Artist - Now That's What I Call Country, Vol. 10
DYEAR=2017
DGENRE=Country
TTITLE0=Keith Urban - Blue Ain't Your Color
TTITLE1=Jon Pardi - Dirt on My Boots
TTITLE2=Josh Turner - Hometown Girl
TTITLE3=Jason Aldean - Any Ol' Barstool
TTITLE4=Luke Bryan - Fast
TTITLE5=Dierks Bentley - Black
TTITLE6=Kenny Chesney - Bar at the End of the World
TTITLE7=Dustin Lynch - Seein' Red
TTITLE8=Lauren Alaina - Road Less Traveled
TTITLE9=Old Dominion - Song for Another Time
TTITLE10=Eric Church - Kill a Word
TTITLE11=Little Big Town - Better Man
TTITLE12=Chris Young feat. Vince Gill - Sober Saturday Night
TTITLE13=Brad Paisley - Today
TTITLE14=Michael Ray - Think a Little Less
TTITLE15=Maren Morris - '80s Mercedes
TTITLE16=Kelsea Ballerini - Yeah Boy
TTITLE17=Miranda Lambert - Vice
TTITLE18=Canaan Smith - Like You That Way (Now What's Next)
EXTD=
EXTT0=
EXTT1=
EXTT2=
EXTT3=
EXTT4=
EXTT5=
EXTT6=
EXTT7=
EXTT8=
EXTT9=
EXTT10=
EXTT11=
EXTT12=
EXTT13=
EXTT14=
EXTT15=
EXTT16=
EXTT17=
EXTT18=
PLAYORDER=
